<?xml version="1.0" standalone="no"?>
<!DOCTYPE svg PUBLIC "-//W3C//DTD SVG 20010904//EN"
 "http://www.w3.org/TR/2001/REC-SVG-20010904/DTD/svg10.dtd">
<svg version="1.0" xmlns="http://www.w3.org/2000/svg"
 width="700.000000pt" height="700.000000pt" viewBox="0 0 700.000000 700.000000"
 preserveAspectRatio="xMidYMid meet">
<metadata>
Created by potrace 1.11, written by Peter Selinger 2001-2013
</metadata>
<g transform="translate(0.000000,700.000000) scale(0.100000,-0.100000)"
fill="#000000" stroke="none">
<path d="M3725 6701 c-52 -13 -109 -48 -151 -93 -22 -24 -153 -178 -289 -343
-137 -165 -252 -302 -255 -305 -3 -3 -21 -25 -41 -50 -20 -25 -45 -55 -55 -67
-11 -12 -26 -30 -34 -40 -8 -10 -60 -72 -115 -138 -55 -66 -107 -129 -116
-140 -10 -11 -102 -122 -206 -246 -103 -124 -206 -247 -228 -274 -89 -108
-300 -360 -305 -365 -3 -3 -37 -43 -75 -90 -38 -47 -77 -94 -86 -105 -10 -11
-66 -78 -125 -150 -60 -71 -113 -135 -119 -141 -5 -6 -26 -30 -45 -54 -30 -38
-262 -317 -312 -375 -9 -11 -45 -54 -79 -95 -34 -41 -81 -97 -104 -125 -24
-27 -89 -106 -146 -175 -57 -69 -111 -134 -121 -145 -9 -11 -33 -40 -54 -65
-72 -87 -94 -177 -68 -277 24 -95 80 -157 179 -199 37 -16 126 -18 1215 -18
l1175 -1 -2 -40 c-2 -36 -18 -171 -28 -235 -2 -14 -6 -47 -10 -75 -3 -27 -10
-86 -16 -130 -11 -92 -13 -106 -34 -275 -9 -69 -18 -141 -20 -160 -2 -19 -7
-57 -10 -85 -4 -27 -8 -61 -10 -75 -2 -14 -6 -50 -10 -80 -3 -30 -8 -66 -10
-80 -2 -14 -7 -50 -10 -80 -9 -85 -32 -263 -40 -310 -2 -14 -7 -56 -11 -95 -3
-38 -8 -79 -10 -90 -2 -11 -7 -47 -10 -80 -4 -33 -8 -63 -10 -67 -3 -4 -5 -38
-5 -77 -1 -119 64 -223 170 -274 69 -32 179 -30 246 5 64 34 73 43 384 418
144 173 270 324 279 335 9 11 273 328 587 705 313 377 574 690 580 696 5 6 28
33 50 59 42 51 381 458 446 535 20 25 99 119 174 210 75 91 147 176 158 190
12 14 56 66 97 115 41 50 82 99 92 110 221 265 232 284 231 390 -1 103 -38
175 -123 237 -74 54 -26 52 -1280 54 -641 1 -1169 2 -1173 3 -5 0 -6 13 -3 29
3 15 8 52 11 82 3 30 12 107 21 170 18 143 22 171 29 240 3 30 8 66 10 80 2
14 7 45 10 70 3 25 7 61 10 80 8 61 14 111 30 245 9 72 18 144 20 160 10 74
27 203 30 235 3 28 24 198 49 395 2 17 7 57 11 90 4 32 9 68 11 80 9 40 5 137
-7 173 -23 70 -83 137 -155 172 -44 22 -141 32 -189 21z m-349 -1268 c-7 -39
-14 -98 -22 -168 -3 -33 -8 -69 -10 -80 -2 -11 -7 -45 -10 -75 -3 -30 -7 -65
-9 -77 -2 -13 -9 -66 -15 -119 -6 -53 -14 -106 -16 -118 -2 -11 -6 -43 -9 -71
-9 -84 -17 -147 -20 -166 -2 -10 -6 -42 -9 -71 -4 -29 -8 -69 -11 -88 -2 -19
-7 -55 -10 -80 -3 -25 -7 -61 -10 -80 -15 -107 -17 -200 -5 -236 29 -94 111
-175 206 -202 29 -8 312 -12 1054 -12 557 0 1014 -1 1015 -3 1 -1 -182 -222
-407 -492 -225 -269 -423 -508 -441 -529 -38 -46 -250 -300 -281 -336 -11 -14
-131 -158 -266 -320 -135 -162 -249 -300 -255 -306 -5 -6 -28 -32 -50 -59
-178 -216 -177 -215 -171 -179 6 38 14 97 21 159 3 28 8 66 10 85 3 19 7 58
11 85 3 28 7 61 9 75 3 14 7 48 10 75 3 28 12 100 20 160 7 61 16 133 20 160
3 28 8 66 10 85 6 39 11 78 20 160 4 30 9 66 11 80 27 169 26 291 -3 351 -30
59 -75 104 -138 137 l-50 27 -865 3 c-476 1 -942 3 -1037 5 l-171 2 105 125
c58 69 112 134 122 145 9 11 310 373 670 805 359 432 667 801 683 820 16 19
89 106 161 193 72 86 133 157 134 157 2 0 1 -12 -1 -27z"/>
</g>
</svg>
